<svg id="Layer_1" data-name="Layer 1" xmlns="http://www.w3.org/2000/svg" viewBox="0 0 1920 600"><defs><style>.cls-1{fill:#fff;}</style></defs><rect class="cls-1" width="1920" height="600"/><path d="M163.75,204.25v-7.5H238v7.5L203,207h-5Zm0,174.5v-7.5l34.25-3h5l35,3v7.5Zm25.5,0q.51-21,.5-42V238.62q0-21.12-.5-41.87H212.5q-.24,20.76-.37,41.87T212,281v6q0,26.76.13,48.75t.37,43ZM201,288.5v-8.25H313.75v8.25Zm75.5-84.25v-7.5h74.25v7.5L316.5,207h-5.25Zm0,174.5v-7.5l34.75-3h5.25l34.25,3v7.5Zm25.25,0q.51-21,.63-42.87T302.5,287v-6q0-21.24-.12-42.38t-.63-41.87h23.5q-.5,20.76-.62,41.87T324.5,281v13.5q0,21.25.13,42.25t.62,42Z"/><path d="M366.75,378.75v-7.5l24.5-2.75h4.25l27.25,2.75v7.5Zm18,0,61-183.5h14l62,183.5h-22.5L444.25,210h5l-1,3.5-53,165.25Zm27-62.25,1-8h76l1,8Zm56.5,62.25v-7.5l33.5-2.75H509l32.5,2.75v7.5Z"/><path d="M554.5,204.25v-7.5h37.25V207H589Zm0,174.5v-7.5l34.5-3h5.5l34.75,3v7.5Zm25.5,0q.5-21,.5-42V238.62q0-21.12-.5-41.87h23.25q-.5,20.76-.62,42.5t-.13,48v5q0,22.75.13,44.13t.62,42.37ZM694.75,381q-12.5,0-18.37-3.88T668.5,364.5L656,321.75q-2.75-10.5-6.5-16.63a21.72,21.72,0,0,0-10.25-8.87q-6.5-2.75-17.75-2.75H592v-8h36.25q14,0,23.88-5.5a37.89,37.89,0,0,0,15.12-15,42.67,42.67,0,0,0,5.25-21q0-18.24-11-28.62T627.75,205h-36v-8.25H631q30,0,46.38,12.13t16.37,34.87a42.42,42.42,0,0,1-6.37,22.63q-6.37,10.37-19,17.12t-31.63,8V289q13.5,1,21.38,4.88a29,29,0,0,1,12.25,11A76.22,76.22,0,0,1,678,323l15.5,51.25L683.25,369l33,2.25v7.5a89.68,89.68,0,0,1-9.37,1.63A103.39,103.39,0,0,1,694.75,381Z"/><path d="M730.5,378.75v-7.5l27.75-3H763l28.75,3v7.5Zm.25-174.5v-7.5h34.5V207H763Zm24.75,174.5.5-182h7.75l1.5,85.25v96.75Zm75,0L759.5,205h-1.25v-8.25H778.5L843.25,356h-5.5l1.5-3,62.5-156.25h9.75V205h-3.25l-2.75,6.25-66.75,167.5Zm46.5,0v-7.5l34.25-3h5l35,3v7.5Zm25.25,0q.5-21,.5-41.63V297.5l1-100.75h21.5q-.25,20.76-.38,41.87T924.75,281v13.5q0,21.25.12,42.25t.38,42ZM913.75,207V196.75h37v7.5L916.25,207Z"/><path d="M1055.25,382.75a79,79,0,0,1-31.38-6.37,75.73,75.73,0,0,1-26.12-18.63A89.14,89.14,0,0,1,980,327.88q-6.51-17.64-6.5-40.13,0-22.25,6.5-39.87a90.36,90.36,0,0,1,17.75-30A76.31,76.31,0,0,1,1023.87,199a77.6,77.6,0,0,1,31.38-6.5,78.42,78.42,0,0,1,31.5,6.38,77.09,77.09,0,0,1,26.12,18.62,86.29,86.29,0,0,1,17.75,30q6.38,17.76,6.38,40.25,0,22.26-6.38,39.87a86.29,86.29,0,0,1-17.75,29.88,78.59,78.59,0,0,1-26.12,18.75A77.34,77.34,0,0,1,1055.25,382.75Zm0-8.5a46,46,0,0,0,25.12-6.87,56.8,56.8,0,0,0,18.13-18.76,94.92,94.92,0,0,0,11-27.5,149.28,149.28,0,0,0,0-66.5,96.85,96.85,0,0,0-11-27.62,55.19,55.19,0,0,0-18.13-18.75,50.14,50.14,0,0,0-50.25,0A56.25,56.25,0,0,0,1011.87,227a92.43,92.43,0,0,0-11,27.62,154.51,154.51,0,0,0,0,66.5,90.63,90.63,0,0,0,11,27.5,57.92,57.92,0,0,0,18.25,18.76A46.05,46.05,0,0,0,1055.25,374.25Z"/><path d="M1302.75,380.5,1190.5,215.25l-.5-.25-6-9.25-24.5-1.5v-7.5h44L1309,353l-4.25,1.5-.5-74.5V196.75h9.25V380.5Zm-143-1.75v-7.5l26.5-3h5.5l32.25,3v7.5Zm24,0V202.5h9l.75,96.5v79.75ZM1274,204.25v-7.5h63.75v7.5L1311.5,207h-5Z"/><path d="M1354.5,204.25v-7.5H1425v7.5L1391.5,207h-6.25ZM1427,314.5l-58.75-117.75h24.5l50.75,105.5H1437l1.5-3.5,48.75-102H1498L1439.75,314.5Zm-33.25,64.25v-7.5l36.75-3h6.5l37.25,3v7.5Zm28.5,0c.16-6.33.29-12.13.37-17.37s.17-10.76.25-16.5.13-12.34.13-19.76V298h21.75v27.12q0,11.13.12,19.63t.25,16.5q.12,8,.38,17.5Zm33.5-174.5v-7.5h59.75v7.5l-25,2.75h-5Z"/><path d="M1579.25,352.75A70.18,70.18,0,0,0,1593.37,365a56,56,0,0,0,16.75,7.12,117.45,117.45,0,0,0,21.63,3.13q12.24.75,28.5.75h32.5q17.49,0,35.25-.25t33.25-.75v3.5q-11.25,2.25-12.5,13.5H1660.5a290.33,290.33,0,0,1-30.25-1.38,91.39,91.39,0,0,1-22.63-5,56.36,56.36,0,0,1-17.37-10.37,72.89,72.89,0,0,1-14.25-17.5q-4.76,5.5-10.63,11.87t-11.62,12.13q-5.76,5.75-10.25,10a5.19,5.19,0,0,1-.25,3.63,5,5,0,0,1-2.5,2.12l-12-20q6.49-3,15.25-7.88T1562.12,359q9.38-5.75,17.13-10.75Zm0-67V352.5l-15.75,10V283.25h-32.25l-1.5-7.25h30.5l9.75-13,21.25,18a11.18,11.18,0,0,1-3.88,2.62A28.79,28.79,0,0,1,1579.25,285.75Zm-42.5-109q15,5,24.25,11.37t13.75,13q4.5,6.63,5.37,12.26t-1.12,9.37a8.29,8.29,0,0,1-6,4.5q-4,.75-8.5-2.75a51.93,51.93,0,0,0-6.5-16.25A128,128,0,0,0,1546.62,192,115.89,115.89,0,0,0,1534,178.75Zm51,155.5H1725.5l12.25-15q4.24,3.51,7.75,6.25c2.33,1.84,4.75,3.79,7.25,5.88s4.91,4.12,7.25,6.12q-1,4-6.75,4h-163.5Zm4.75-134h130.25l11.75-14.75q4.5,3.25,7.87,6c2.25,1.84,4.67,3.79,7.25,5.88a86.7,86.7,0,0,1,6.88,6.12,3.53,3.53,0,0,1-2,2.88,10.13,10.13,0,0,1-4.5.87H1594.5Zm16.25,31V221.5l17.25,7.75h104.75v7.25h-106v75c0,.5-.67,1.17-2,2a22.58,22.58,0,0,1-5.13,2.25,20.68,20.68,0,0,1-6.37,1h-2.5Zm6.25,33h113.5v7H1615Zm0,34.5h113.5V304H1615Zm48.75-127.5,25.25,2.5a8.61,8.61,0,0,1-2.38,4.63c-1.25,1.24-3.46,2.12-6.62,2.62V362.5c0,.67-.67,1.5-2,2.5a17.74,17.74,0,0,1-4.88,2.5,18.44,18.44,0,0,1-6.12,1h-3.25Zm56.5,60h-2.5l9-10,20.25,15.5a12.39,12.39,0,0,1-4,2.87,25.8,25.8,0,0,1-6.75,2.13v68.5c0,.67-.8,1.42-2.38,2.25a47.22,47.22,0,0,1-5.37,2.38,16.59,16.59,0,0,1-5.75,1.12h-2.5Z"/></svg>